<svg id="图层_1" data-name="图层 1" xmlns="http://www.w3.org/2000/svg" viewBox="0 0 732.86 362.41">
  <title>画板 1</title>
  <g>
    <polygon points="109.05 71.63 76 89.15 202.77 156.53 233.07 137.95 109.05 71.63" fill="#fff"/>
    <polygon points="85.94 156.53 54.58 137.36 184.44 68.83 214.34 88.36 85.94 156.53" fill="#fff"/>
    <polygon points="83.75 230.9 143.94 264.23 144.33 293.46 55.08 243.29 55.08 138.76 85.98 156.51 83.75 230.9" fill="none" stroke="#fff" stroke-miterlimit="10"/>
    <polygon points="204.42 231.16 143.94 264.23 144.33 293.46 233.55 243.55 232.6 138.68 202.64 156.77 204.42 231.16" fill="none" stroke="#fff" stroke-miterlimit="10"/>
    <polygon points="83.75 230.27 143.94 194.77 204.9 230.9 143.94 264.23 83.75 230.27" fill="none" stroke="#fff" stroke-miterlimit="10"/>
    <polygon points="143.94 194.77 143.94 125.87 86.08 156.51 83.75 230.9 143.94 194.77" fill="none" stroke="#fff" stroke-miterlimit="10"/>
    <polygon points="144.72 194.77 144.72 125.87 202.57 156.51 204.9 230.9 144.72 194.77" fill="none" stroke="#fff" stroke-miterlimit="10"/>
    <polygon points="76.43 89.86 76.43 125.87 111.69 106.61 76.43 89.86" fill="none" stroke="#fff" stroke-miterlimit="10"/>
    <line x1="214.34" y1="88.36" x2="214.34" y2="127.94" fill="none" stroke="#fff" stroke-miterlimit="10"/>
  </g>
  <text transform="translate(255.64 208.78) scale(0.98 1)" font-size="207" fill="#fff" font-family="FZCHSJW--GB1-0, FZCuHeiSongS-B-GB">inDi</text>
  <text transform="translate(270.4 272.54) scale(0.98 1)" font-size="47.8" fill="#fff" font-family="FZCHSJW--GB1-0, FZCuHeiSongS-B-GB">o r i g i n a l i t y</text>
</svg>
